<mxfile host="Electron" agent="Mozilla/5.0 (Windows NT 10.0; Win64; x64) AppleWebKit/537.36 (KHTML, like Gecko) draw.io/24.7.8 Chrome/128.0.6613.36 Electron/32.0.1 Safari/537.36" version="24.7.8">
  <diagram name="Page-1" id="vrvGgvqZz0d1YwzTf97D">
    <mxGraphModel dx="868" dy="1022" grid="1" gridSize="10" guides="1" tooltips="1" connect="1" arrows="1" fold="1" page="1" pageScale="1" pageWidth="850" pageHeight="1100" math="0" shadow="0">
      <root>
        <mxCell id="0" />
        <mxCell id="1" parent="0" />
        <mxCell id="ClSQ21FLSD9JZxKuCqr_-1" value="Start" style="rounded=1;whiteSpace=wrap;html=1;" vertex="1" parent="1">
          <mxGeometry x="365" y="30" width="120" height="60" as="geometry" />
        </mxCell>
        <mxCell id="ClSQ21FLSD9JZxKuCqr_-2" value="height: (float): &quot;What your height? &quot;" style="shape=card;whiteSpace=wrap;html=1;" vertex="1" parent="1">
          <mxGeometry x="365" y="240" width="115" height="70" as="geometry" />
        </mxCell>
        <mxCell id="ClSQ21FLSD9JZxKuCqr_-3" value="while True" style="ellipse;whiteSpace=wrap;html=1;aspect=fixed;" vertex="1" parent="1">
          <mxGeometry x="385" y="130" width="80" height="80" as="geometry" />
        </mxCell>
        <mxCell id="ClSQ21FLSD9JZxKuCqr_-6" style="edgeStyle=orthogonalEdgeStyle;rounded=0;orthogonalLoop=1;jettySize=auto;html=1;entryX=0.5;entryY=0;entryDx=0;entryDy=0;" edge="1" parent="1" source="ClSQ21FLSD9JZxKuCqr_-4" target="ClSQ21FLSD9JZxKuCqr_-5">
          <mxGeometry relative="1" as="geometry" />
        </mxCell>
        <mxCell id="ClSQ21FLSD9JZxKuCqr_-7" value="yes" style="edgeLabel;html=1;align=center;verticalAlign=middle;resizable=0;points=[];" vertex="1" connectable="0" parent="ClSQ21FLSD9JZxKuCqr_-6">
          <mxGeometry x="0.0374" y="1" relative="1" as="geometry">
            <mxPoint as="offset" />
          </mxGeometry>
        </mxCell>
        <mxCell id="ClSQ21FLSD9JZxKuCqr_-14" style="edgeStyle=orthogonalEdgeStyle;rounded=0;orthogonalLoop=1;jettySize=auto;html=1;entryX=0.5;entryY=0;entryDx=0;entryDy=0;" edge="1" parent="1" source="ClSQ21FLSD9JZxKuCqr_-4" target="ClSQ21FLSD9JZxKuCqr_-13">
          <mxGeometry relative="1" as="geometry" />
        </mxCell>
        <mxCell id="ClSQ21FLSD9JZxKuCqr_-15" value="no" style="edgeLabel;html=1;align=center;verticalAlign=middle;resizable=0;points=[];" vertex="1" connectable="0" parent="ClSQ21FLSD9JZxKuCqr_-14">
          <mxGeometry x="-0.0248" y="-4" relative="1" as="geometry">
            <mxPoint as="offset" />
          </mxGeometry>
        </mxCell>
        <mxCell id="ClSQ21FLSD9JZxKuCqr_-4" value="&lt;div style=&quot;background-color:#1e1f22;color:#bcbec4&quot;&gt;&lt;pre style=&quot;font-family:&#39;JetBrains Mono&#39;,monospace;font-size:9.8pt;&quot;&gt;&lt;span style=&quot;color:#2aacb8;&quot;&gt;0.4 &lt;/span&gt;&amp;gt; height &lt;span style=&quot;color:#cf8e6d;&quot;&gt;or &lt;/span&gt;&lt;span style=&quot;color:#2aacb8;&quot;&gt;2.4 &lt;/span&gt;&amp;lt; height&lt;/pre&gt;&lt;/div&gt;" style="rhombus;whiteSpace=wrap;html=1;" vertex="1" parent="1">
          <mxGeometry x="385" y="380" width="80" height="80" as="geometry" />
        </mxCell>
        <mxCell id="ClSQ21FLSD9JZxKuCqr_-9" value="" style="edgeStyle=orthogonalEdgeStyle;rounded=0;orthogonalLoop=1;jettySize=auto;html=1;" edge="1" parent="1" source="ClSQ21FLSD9JZxKuCqr_-5" target="ClSQ21FLSD9JZxKuCqr_-8">
          <mxGeometry relative="1" as="geometry" />
        </mxCell>
        <mxCell id="ClSQ21FLSD9JZxKuCqr_-5" value="&quot;Your height is: &quot;" style="shape=document;whiteSpace=wrap;html=1;boundedLbl=1;" vertex="1" parent="1">
          <mxGeometry x="550" y="460" width="120" height="80" as="geometry" />
        </mxCell>
        <mxCell id="ClSQ21FLSD9JZxKuCqr_-11" value="" style="edgeStyle=orthogonalEdgeStyle;rounded=0;orthogonalLoop=1;jettySize=auto;html=1;" edge="1" parent="1" source="ClSQ21FLSD9JZxKuCqr_-8">
          <mxGeometry relative="1" as="geometry">
            <mxPoint x="610" y="720.0000000000002" as="targetPoint" />
          </mxGeometry>
        </mxCell>
        <mxCell id="ClSQ21FLSD9JZxKuCqr_-8" value="break" style="rounded=0;whiteSpace=wrap;html=1;" vertex="1" parent="1">
          <mxGeometry x="550" y="580" width="120" height="60" as="geometry" />
        </mxCell>
        <mxCell id="ClSQ21FLSD9JZxKuCqr_-12" value="End" style="rounded=1;whiteSpace=wrap;html=1;" vertex="1" parent="1">
          <mxGeometry x="550" y="720" width="120" height="60" as="geometry" />
        </mxCell>
        <mxCell id="ClSQ21FLSD9JZxKuCqr_-18" style="edgeStyle=orthogonalEdgeStyle;rounded=0;orthogonalLoop=1;jettySize=auto;html=1;" edge="1" parent="1" source="ClSQ21FLSD9JZxKuCqr_-13">
          <mxGeometry relative="1" as="geometry">
            <mxPoint x="280" y="630" as="targetPoint" />
          </mxGeometry>
        </mxCell>
        <mxCell id="ClSQ21FLSD9JZxKuCqr_-13" value="&quot;Wrong input&quot;" style="shape=document;whiteSpace=wrap;html=1;boundedLbl=1;" vertex="1" parent="1">
          <mxGeometry x="220" y="490" width="120" height="80" as="geometry" />
        </mxCell>
        <mxCell id="ClSQ21FLSD9JZxKuCqr_-16" value="" style="endArrow=none;html=1;rounded=0;" edge="1" parent="1">
          <mxGeometry width="50" height="50" relative="1" as="geometry">
            <mxPoint x="250" y="640" as="sourcePoint" />
            <mxPoint x="300" y="640" as="targetPoint" />
          </mxGeometry>
        </mxCell>
        <mxCell id="ClSQ21FLSD9JZxKuCqr_-17" value="" style="endArrow=none;html=1;rounded=0;" edge="1" parent="1">
          <mxGeometry width="50" height="50" relative="1" as="geometry">
            <mxPoint x="200" y="680" as="sourcePoint" />
            <mxPoint x="300" y="680" as="targetPoint" />
          </mxGeometry>
        </mxCell>
      </root>
    </mxGraphModel>
  </diagram>
</mxfile>
